<svg xmlns="http://www.w3.org/2000/svg" viewBox="0 0 600 600" role="img" aria-label="Illustration de la pizza Calzone"><defs><radialGradient id="dough"><stop stop-color="#f4cf85"/><stop offset=".82" stop-color="#d5a05c"/><stop offset="1" stop-color="#a56836"/></radialGradient><radialGradient id="cheese"><stop stop-color="#fff0bb"/><stop offset=".8" stop-color="#eeb85f"/><stop offset="1" stop-color="#d98939"/></radialGradient><radialGradient id="sauce"><stop stop-color="#d65734"/><stop offset="1" stop-color="#a33825"/></radialGradient><filter id="shadow" x="-.3" y="-.3" width="1.6" height="1.6"><feGaussianBlur stdDeviation="9"/></filter><filter id="grain"><feTurbulence type="fractalNoise" baseFrequency=".6" numOctaves="3" seed="18"/><feColorMatrix type="saturate" values="0"/><feComponentTransfer><feFuncA type="linear" slope=".12"/></feComponentTransfer><feBlend in="SourceGraphic" mode="multiply"/></filter><clipPath id="top"><circle cx="300" cy="300" r="202"/></clipPath></defs><rect width="600" height="600" fill="#dcc7a2"/><ellipse cx="301" cy="323" rx="238" ry="230" fill="#3c2717" opacity=".22" filter="url(#shadow)"/><circle cx="300" cy="300" r="241" fill="#ede2cb"/><circle cx="300" cy="300" r="232" fill="#fff8e8"/><path d="M93 296 Q300 38 507 296 Q474 449 300 450 Q126 449 93 296Z" fill="url(#dough)" stroke="#b87940" stroke-width="5" filter="url(#grain)"/><path d="M102 298 Q300 464 498 298" fill="none" stroke="#e8be7d" stroke-width="18" stroke-dasharray="9 12"/><ellipse cx="305.8" cy="249.8" rx="8.0" ry="3.3" fill="#77452b" opacity=".55"/><ellipse cx="201.2" cy="326.9" rx="2.4" ry="2.6" fill="#77452b" opacity=".55"/><ellipse cx="200.5" cy="249.9" rx="2.9" ry="2.9" fill="#77452b" opacity=".55"/><ellipse cx="251.9" cy="303.0" rx="2.4" ry="2.4" fill="#77452b" opacity=".55"/><ellipse cx="206.8" cy="316.2" rx="6.0" ry="3.8" fill="#77452b" opacity=".55"/><ellipse cx="175.6" cy="228.9" rx="7.1" ry="3.0" fill="#77452b" opacity=".55"/><ellipse cx="201.8" cy="290.5" rx="4.5" ry="3.4" fill="#77452b" opacity=".55"/><ellipse cx="448.0" cy="265.8" rx="3.1" ry="3.1" fill="#77452b" opacity=".55"/><ellipse cx="239.1" cy="231.4" rx="5.7" ry="2.6" fill="#77452b" opacity=".55"/><ellipse cx="199.0" cy="239.0" rx="6.9" ry="3.5" fill="#77452b" opacity=".55"/><ellipse cx="303.4" cy="272.1" rx="6.6" ry="3.4" fill="#77452b" opacity=".55"/><ellipse cx="241.9" cy="256.5" rx="4.9" ry="2.6" fill="#77452b" opacity=".55"/><ellipse cx="350.3" cy="387.4" rx="3.2" ry="2.8" fill="#77452b" opacity=".55"/><ellipse cx="356.9" cy="356.2" rx="5.9" ry="1.6" fill="#77452b" opacity=".55"/><ellipse cx="238.2" cy="376.9" rx="3.0" ry="3.2" fill="#77452b" opacity=".55"/><ellipse cx="233.6" cy="337.3" rx="2.5" ry="2.9" fill="#77452b" opacity=".55"/><ellipse cx="188.6" cy="236.6" rx="6.0" ry="1.7" fill="#77452b" opacity=".55"/><ellipse cx="419.1" cy="394.6" rx="5.2" ry="1.6" fill="#77452b" opacity=".55"/><ellipse cx="213.9" cy="360.8" rx="7.2" ry="1.8" fill="#77452b" opacity=".55"/><ellipse cx="257.6" cy="338.8" rx="2.3" ry="2.5" fill="#77452b" opacity=".55"/><ellipse cx="153.2" cy="319.4" rx="4.3" ry="2.5" fill="#77452b" opacity=".55"/><ellipse cx="169.2" cy="275.3" rx="8.0" ry="1.4" fill="#77452b" opacity=".55"/><ellipse cx="268.0" cy="349.1" rx="6.1" ry="1.2" fill="#77452b" opacity=".55"/><ellipse cx="427.0" cy="324.9" rx="2.3" ry="2.1" fill="#77452b" opacity=".55"/><ellipse cx="247.8" cy="317.6" rx="6.7" ry="3.4" fill="#77452b" opacity=".55"/><ellipse cx="406.8" cy="261.7" rx="2.4" ry="3.8" fill="#77452b" opacity=".55"/><ellipse cx="232.8" cy="334.7" rx="3.8" ry="2.7" fill="#77452b" opacity=".55"/><ellipse cx="272.1" cy="355.1" rx="2.5" ry="2.3" fill="#77452b" opacity=".55"/><ellipse cx="442.5" cy="384.8" rx="3.6" ry="2.0" fill="#77452b" opacity=".55"/><ellipse cx="263.5" cy="243.8" rx="4.5" ry="1.2" fill="#77452b" opacity=".55"/><ellipse cx="371.0" cy="282.4" rx="3.6" ry="2.7" fill="#77452b" opacity=".55"/><ellipse cx="424.4" cy="369.5" rx="3.5" ry="1.6" fill="#77452b" opacity=".55"/><ellipse cx="329.0" cy="299.0" rx="6.4" ry="3.7" fill="#77452b" opacity=".55"/><ellipse cx="222.2" cy="312.0" rx="6.4" ry="3.2" fill="#77452b" opacity=".55"/><ellipse cx="346.9" cy="282.2" rx="2.2" ry="1.8" fill="#77452b" opacity=".55"/><ellipse cx="199.9" cy="367.5" rx="2.8" ry="3.1" fill="#77452b" opacity=".55"/><ellipse cx="206.6" cy="297.0" rx="2.8" ry="2.7" fill="#77452b" opacity=".55"/><ellipse cx="209.5" cy="277.0" rx="7.6" ry="3.1" fill="#77452b" opacity=".55"/><ellipse cx="359.1" cy="279.8" rx="3.9" ry="1.7" fill="#77452b" opacity=".55"/><ellipse cx="433.8" cy="301.6" rx="6.7" ry="2.2" fill="#77452b" opacity=".55"/><ellipse cx="302.2" cy="380.0" rx="5.6" ry="2.2" fill="#77452b" opacity=".55"/><ellipse cx="241.5" cy="256.5" rx="3.6" ry="2.7" fill="#77452b" opacity=".55"/><ellipse cx="407.2" cy="296.5" rx="6.6" ry="2.6" fill="#77452b" opacity=".55"/><ellipse cx="248.6" cy="235.7" rx="3.3" ry="1.7" fill="#77452b" opacity=".55"/><ellipse cx="314.1" cy="294.0" rx="7.6" ry="3.2" fill="#77452b" opacity=".55"/><ellipse cx="245.4" cy="326.1" rx="6.7" ry="1.2" fill="#77452b" opacity=".55"/><ellipse cx="395.3" cy="345.9" rx="5.2" ry="3.0" fill="#77452b" opacity=".55"/><ellipse cx="395.3" cy="335.5" rx="6.2" ry="3.4" fill="#77452b" opacity=".55"/><ellipse cx="373.9" cy="389.7" rx="5.4" ry="2.4" fill="#77452b" opacity=".55"/><ellipse cx="423.7" cy="337.4" rx="2.5" ry="3.9" fill="#77452b" opacity=".55"/><ellipse cx="168.9" cy="238.7" rx="2.1" ry="2.3" fill="#77452b" opacity=".55"/><ellipse cx="289.7" cy="314.1" rx="5.6" ry="2.7" fill="#77452b" opacity=".55"/><ellipse cx="306.0" cy="304.9" rx="4.6" ry="3.3" fill="#77452b" opacity=".55"/><ellipse cx="414.1" cy="309.5" rx="7.9" ry="3.8" fill="#77452b" opacity=".55"/><ellipse cx="329.2" cy="286.5" rx="7.5" ry="3.0" fill="#77452b" opacity=".55"/><ellipse cx="291.0" cy="301.5" rx="4.2" ry="1.3" fill="#77452b" opacity=".55"/><ellipse cx="235.2" cy="280.3" rx="6.7" ry="3.9" fill="#77452b" opacity=".55"/><ellipse cx="430.8" cy="295.0" rx="6.5" ry="2.2" fill="#77452b" opacity=".55"/><ellipse cx="270.8" cy="235.7" rx="2.1" ry="3.7" fill="#77452b" opacity=".55"/><ellipse cx="446.7" cy="235.3" rx="4.0" ry="4.0" fill="#77452b" opacity=".55"/><ellipse cx="405.5" cy="378.9" rx="6.2" ry="1.3" fill="#77452b" opacity=".55"/><ellipse cx="232.8" cy="246.3" rx="3.2" ry="1.8" fill="#77452b" opacity=".55"/><ellipse cx="245.8" cy="371.8" rx="3.2" ry="3.0" fill="#77452b" opacity=".55"/><ellipse cx="218.1" cy="286.0" rx="5.9" ry="2.5" fill="#77452b" opacity=".55"/><ellipse cx="368.5" cy="391.2" rx="5.0" ry="3.7" fill="#77452b" opacity=".55"/><ellipse cx="165.1" cy="342.2" rx="4.9" ry="1.5" fill="#77452b" opacity=".55"/><ellipse cx="352.9" cy="270.1" rx="7.4" ry="3.2" fill="#77452b" opacity=".55"/><ellipse cx="428.4" cy="269.6" rx="4.9" ry="1.0" fill="#77452b" opacity=".55"/><ellipse cx="267.1" cy="359.3" rx="6.2" ry="1.9" fill="#77452b" opacity=".55"/><ellipse cx="413.0" cy="284.9" rx="3.2" ry="3.7" fill="#77452b" opacity=".55"/><ellipse cx="337.7" cy="354.0" rx="7.8" ry="3.9" fill="#77452b" opacity=".55"/><ellipse cx="290.8" cy="368.2" rx="6.8" ry="3.8" fill="#77452b" opacity=".55"/><ellipse cx="282.3" cy="285.4" rx="4.8" ry="3.1" fill="#77452b" opacity=".55"/><ellipse cx="352.2" cy="303.8" rx="3.8" ry="3.2" fill="#77452b" opacity=".55"/><ellipse cx="436.7" cy="250.0" rx="6.0" ry="1.3" fill="#77452b" opacity=".55"/><ellipse cx="158.2" cy="370.8" rx="4.9" ry="3.4" fill="#77452b" opacity=".55"/><ellipse cx="390.9" cy="303.9" rx="7.5" ry="3.2" fill="#77452b" opacity=".55"/><ellipse cx="213.9" cy="392.8" rx="5.8" ry="1.2" fill="#77452b" opacity=".55"/><ellipse cx="310.8" cy="367.1" rx="5.1" ry="2.8" fill="#77452b" opacity=".55"/><ellipse cx="158.8" cy="311.0" rx="7.7" ry="1.2" fill="#77452b" opacity=".55"/><ellipse cx="218.1" cy="328.9" rx="2.4" ry="3.5" fill="#77452b" opacity=".55"/><ellipse cx="341.3" cy="347.3" rx="2.8" ry="3.5" fill="#77452b" opacity=".55"/><ellipse cx="155.1" cy="328.3" rx="4.1" ry="3.6" fill="#77452b" opacity=".55"/><ellipse cx="344.4" cy="235.0" rx="6.0" ry="3.4" fill="#77452b" opacity=".55"/><ellipse cx="206.3" cy="367.2" rx="5.1" ry="2.8" fill="#77452b" opacity=".55"/><circle cx="525.0" cy="104.1" r="1" fill="#f1ebc9" opacity=".7"/><circle cx="102.2" cy="88.1" r="1" fill="#f1ebc9" opacity=".7"/><circle cx="86.3" cy="136.7" r="1" fill="#f1ebc9" opacity=".7"/><circle cx="173.5" cy="118.2" r="1" fill="#f1ebc9" opacity=".7"/><circle cx="356.3" cy="496.8" r="1" fill="#f1ebc9" opacity=".7"/><circle cx="119.7" cy="140.0" r="1" fill="#f1ebc9" opacity=".7"/><circle cx="338.8" cy="98.1" r="1" fill="#f1ebc9" opacity=".7"/><circle cx="146.8" cy="373.1" r="1" fill="#f1ebc9" opacity=".7"/><circle cx="120.3" cy="120.1" r="1" fill="#f1ebc9" opacity=".7"/><circle cx="166.3" cy="496.8" r="1" fill="#f1ebc9" opacity=".7"/><circle cx="496.9" cy="158.3" r="1" fill="#f1ebc9" opacity=".7"/><circle cx="172.2" cy="506.5" r="1" fill="#f1ebc9" opacity=".7"/><circle cx="373.0" cy="333.3" r="1" fill="#f1ebc9" opacity=".7"/><circle cx="471.5" cy="170.1" r="1" fill="#f1ebc9" opacity=".7"/><circle cx="186.9" cy="164.0" r="1" fill="#f1ebc9" opacity=".7"/><circle cx="358.9" cy="150.9" r="1" fill="#f1ebc9" opacity=".7"/><circle cx="136.8" cy="255.7" r="1" fill="#f1ebc9" opacity=".7"/><circle cx="222.2" cy="190.0" r="1" fill="#f1ebc9" opacity=".7"/><circle cx="228.7" cy="313.3" r="1" fill="#f1ebc9" opacity=".7"/><circle cx="174.0" cy="260.9" r="1" fill="#f1ebc9" opacity=".7"/><circle cx="328.1" cy="409.3" r="1" fill="#f1ebc9" opacity=".7"/><circle cx="200.4" cy="375.5" r="1" fill="#f1ebc9" opacity=".7"/><circle cx="465.4" cy="223.2" r="1" fill="#f1ebc9" opacity=".7"/><circle cx="411.8" cy="193.2" r="1" fill="#f1ebc9" opacity=".7"/><circle cx="258.4" cy="200.6" r="1" fill="#f1ebc9" opacity=".7"/><circle cx="398.2" cy="516.4" r="1" fill="#f1ebc9" opacity=".7"/><circle cx="502.9" cy="157.8" r="1" fill="#f1ebc9" opacity=".7"/><circle cx="164.8" cy="106.4" r="1" fill="#f1ebc9" opacity=".7"/><circle cx="425.1" cy="122.9" r="1" fill="#f1ebc9" opacity=".7"/><circle cx="486.6" cy="458.7" r="1" fill="#f1ebc9" opacity=".7"/></svg>