<svg xmlns="http://www.w3.org/2000/svg" viewBox="0 0 600 600" role="img" aria-label="Illustration de la pizza Diavola"><defs><radialGradient id="dough"><stop stop-color="#f4cf85"/><stop offset=".82" stop-color="#d5a05c"/><stop offset="1" stop-color="#a56836"/></radialGradient><radialGradient id="cheese"><stop stop-color="#fff0bb"/><stop offset=".8" stop-color="#eeb85f"/><stop offset="1" stop-color="#d98939"/></radialGradient><radialGradient id="sauce"><stop stop-color="#d65734"/><stop offset="1" stop-color="#a33825"/></radialGradient><filter id="shadow" x="-.3" y="-.3" width="1.6" height="1.6"><feGaussianBlur stdDeviation="9"/></filter><filter id="grain"><feTurbulence type="fractalNoise" baseFrequency=".6" numOctaves="3" seed="18"/><feColorMatrix type="saturate" values="0"/><feComponentTransfer><feFuncA type="linear" slope=".12"/></feComponentTransfer><feBlend in="SourceGraphic" mode="multiply"/></filter><clipPath id="top"><circle cx="300" cy="300" r="202"/></clipPath></defs><rect width="600" height="600" fill="#e5b4a0"/><ellipse cx="301" cy="323" rx="238" ry="230" fill="#3c2717" opacity=".22" filter="url(#shadow)"/><circle cx="300" cy="300" r="241" fill="#ede2cb"/><circle cx="300" cy="300" r="232" fill="#fff8e8"/><circle cx="300" cy="300" r="224" fill="url(#dough)" filter="url(#grain)"/><ellipse cx="503.7" cy="328.9" rx="6.2" ry="1.4" fill="#633a26" opacity=".65" transform="rotate(8.1 503.7 328.9)"/><ellipse cx="403.5" cy="492.1" rx="2.9" ry="3.6" fill="#633a26" opacity=".65" transform="rotate(61.7 403.5 492.1)"/><ellipse cx="92.7" cy="290.5" rx="6.8" ry="2.9" fill="#633a26" opacity=".65" transform="rotate(182.6 92.7 290.5)"/><ellipse cx="497.7" cy="355.9" rx="6.6" ry="1.3" fill="#633a26" opacity=".65" transform="rotate(15.8 497.7 355.9)"/><ellipse cx="94.7" cy="327.6" rx="4.1" ry="3.2" fill="#633a26" opacity=".65" transform="rotate(172.4 94.7 327.6)"/><ellipse cx="108.3" cy="405.1" rx="4.3" ry="1.3" fill="#633a26" opacity=".65" transform="rotate(151.3 108.3 405.1)"/><ellipse cx="335.8" cy="87.7" rx="7.9" ry="1.5" fill="#633a26" opacity=".65" transform="rotate(279.6 335.8 87.7)"/><ellipse cx="393.9" cy="487.6" rx="2.5" ry="2.9" fill="#633a26" opacity=".65" transform="rotate(63.4 393.9 487.6)"/><ellipse cx="364.8" cy="103.6" rx="7.1" ry="1.9" fill="#633a26" opacity=".65" transform="rotate(288.3 364.8 103.6)"/><ellipse cx="315.0" cy="505.4" rx="7.0" ry="3.4" fill="#633a26" opacity=".65" transform="rotate(85.8 315.0 505.4)"/><ellipse cx="178.3" cy="475.4" rx="6.4" ry="3.4" fill="#633a26" opacity=".65" transform="rotate(124.8 178.3 475.4)"/><ellipse cx="250.1" cy="89.9" rx="5.2" ry="1.6" fill="#633a26" opacity=".65" transform="rotate(256.6 250.1 89.9)"/><ellipse cx="109.8" cy="213.1" rx="4.5" ry="3.9" fill="#633a26" opacity=".65" transform="rotate(204.5 109.8 213.1)"/><ellipse cx="370.1" cy="105.9" rx="3.5" ry="1.8" fill="#633a26" opacity=".65" transform="rotate(289.9 370.1 105.9)"/><ellipse cx="348.9" cy="90.3" rx="7.3" ry="2.0" fill="#633a26" opacity=".65" transform="rotate(283.1 348.9 90.3)"/><ellipse cx="367.1" cy="492.8" rx="2.6" ry="1.4" fill="#633a26" opacity=".65" transform="rotate(70.8 367.1 492.8)"/><ellipse cx="92.2" cy="331.0" rx="4.5" ry="3.5" fill="#633a26" opacity=".65" transform="rotate(171.5 92.2 331.0)"/><ellipse cx="516.7" cy="330.7" rx="7.9" ry="3.2" fill="#633a26" opacity=".65" transform="rotate(8.1 516.7 330.7)"/><ellipse cx="412.3" cy="124.7" rx="2.1" ry="2.0" fill="#633a26" opacity=".65" transform="rotate(302.6 412.3 124.7)"/><ellipse cx="246.5" cy="88.0" rx="5.6" ry="2.6" fill="#633a26" opacity=".65" transform="rotate(255.8 246.5 88.0)"/><ellipse cx="190.1" cy="113.9" rx="6.7" ry="2.3" fill="#633a26" opacity=".65" transform="rotate(239.4 190.1 113.9)"/><ellipse cx="87.4" cy="311.8" rx="7.1" ry="2.6" fill="#633a26" opacity=".65" transform="rotate(176.8 87.4 311.8)"/><ellipse cx="357.1" cy="91.6" rx="7.1" ry="3.3" fill="#633a26" opacity=".65" transform="rotate(285.3 357.1 91.6)"/><ellipse cx="114.1" cy="384.2" rx="2.7" ry="2.6" fill="#633a26" opacity=".65" transform="rotate(155.6 114.1 384.2)"/><ellipse cx="476.6" cy="425.4" rx="5.5" ry="3.8" fill="#633a26" opacity=".65" transform="rotate(35.4 476.6 425.4)"/><ellipse cx="418.0" cy="125.0" rx="7.2" ry="2.3" fill="#633a26" opacity=".65" transform="rotate(304.0 418.0 125.0)"/><ellipse cx="389.8" cy="111.4" rx="3.1" ry="3.8" fill="#633a26" opacity=".65" transform="rotate(295.5 389.8 111.4)"/><ellipse cx="196.5" cy="122.7" rx="2.2" ry="1.8" fill="#633a26" opacity=".65" transform="rotate(239.7 196.5 122.7)"/><ellipse cx="490.9" cy="195.5" rx="4.1" ry="1.2" fill="#633a26" opacity=".65" transform="rotate(331.3 490.9 195.5)"/><ellipse cx="202.5" cy="492.2" rx="4.7" ry="2.0" fill="#633a26" opacity=".65" transform="rotate(116.9 202.5 492.2)"/><ellipse cx="89.0" cy="286.3" rx="5.9" ry="2.1" fill="#633a26" opacity=".65" transform="rotate(183.7 89.0 286.3)"/><ellipse cx="474.3" cy="168.5" rx="2.9" ry="3.2" fill="#633a26" opacity=".65" transform="rotate(323.0 474.3 168.5)"/><ellipse cx="360.4" cy="497.4" rx="4.1" ry="2.3" fill="#633a26" opacity=".65" transform="rotate(73.0 360.4 497.4)"/><ellipse cx="387.2" cy="488.5" rx="2.4" ry="3.2" fill="#633a26" opacity=".65" transform="rotate(65.2 387.2 488.5)"/><ellipse cx="111.4" cy="206.1" rx="6.8" ry="1.7" fill="#633a26" opacity=".65" transform="rotate(206.5 111.4 206.1)"/><ellipse cx="169.4" cy="456.7" rx="6.3" ry="3.3" fill="#633a26" opacity=".65" transform="rotate(129.8 169.4 456.7)"/><ellipse cx="119.4" cy="405.5" rx="4.2" ry="2.2" fill="#633a26" opacity=".65" transform="rotate(149.7 119.4 405.5)"/><ellipse cx="92.0" cy="312.3" rx="5.3" ry="3.9" fill="#633a26" opacity=".65" transform="rotate(176.6 92.0 312.3)"/><ellipse cx="243.4" cy="510.7" rx="5.9" ry="3.7" fill="#633a26" opacity=".65" transform="rotate(105.0 243.4 510.7)"/><ellipse cx="420.3" cy="120.7" rx="2.4" ry="3.1" fill="#633a26" opacity=".65" transform="rotate(303.9 420.3 120.7)"/><ellipse cx="312.8" cy="513.5" rx="4.1" ry="1.8" fill="#633a26" opacity=".65" transform="rotate(86.6 312.8 513.5)"/><ellipse cx="87.5" cy="308.4" rx="5.9" ry="1.5" fill="#633a26" opacity=".65" transform="rotate(177.7 87.5 308.4)"/><ellipse cx="119.6" cy="401.7" rx="5.1" ry="3.0" fill="#633a26" opacity=".65" transform="rotate(150.6 119.6 401.7)"/><ellipse cx="201.4" cy="489.0" rx="5.1" ry="2.3" fill="#633a26" opacity=".65" transform="rotate(117.6 201.4 489.0)"/><ellipse cx="150.4" cy="161.4" rx="2.9" ry="3.2" fill="#633a26" opacity=".65" transform="rotate(222.8 150.4 161.4)"/><ellipse cx="137.4" cy="166.0" rx="3.3" ry="3.6" fill="#633a26" opacity=".65" transform="rotate(219.5 137.4 166.0)"/><ellipse cx="514.0" cy="326.3" rx="7.4" ry="3.7" fill="#633a26" opacity=".65" transform="rotate(7.0 514.0 326.3)"/><ellipse cx="373.3" cy="95.1" rx="7.7" ry="2.1" fill="#633a26" opacity=".65" transform="rotate(289.7 373.3 95.1)"/><ellipse cx="365.0" cy="507.0" rx="4.5" ry="3.4" fill="#633a26" opacity=".65" transform="rotate(72.6 365.0 507.0)"/><ellipse cx="81.6" cy="285.0" rx="3.0" ry="2.8" fill="#633a26" opacity=".65" transform="rotate(183.9 81.6 285.0)"/><ellipse cx="468.9" cy="167.4" rx="2.0" ry="1.8" fill="#633a26" opacity=".65" transform="rotate(321.9 468.9 167.4)"/><ellipse cx="364.7" cy="499.8" rx="7.3" ry="1.8" fill="#633a26" opacity=".65" transform="rotate(72.1 364.7 499.8)"/><ellipse cx="452.3" cy="156.5" rx="7.6" ry="2.6" fill="#633a26" opacity=".65" transform="rotate(316.7 452.3 156.5)"/><ellipse cx="279.4" cy="89.2" rx="6.2" ry="3.1" fill="#633a26" opacity=".65" transform="rotate(264.4 279.4 89.2)"/><ellipse cx="89.5" cy="307.0" rx="3.3" ry="3.7" fill="#633a26" opacity=".65" transform="rotate(178.1 89.5 307.0)"/><ellipse cx="204.1" cy="481.6" rx="4.5" ry="3.3" fill="#633a26" opacity=".65" transform="rotate(117.8 204.1 481.6)"/><ellipse cx="391.1" cy="117.2" rx="5.1" ry="3.6" fill="#633a26" opacity=".65" transform="rotate(296.5 391.1 117.2)"/><ellipse cx="513.4" cy="313.8" rx="5.7" ry="2.8" fill="#633a26" opacity=".65" transform="rotate(3.7 513.4 313.8)"/><ellipse cx="506.6" cy="227.7" rx="6.5" ry="1.1" fill="#633a26" opacity=".65" transform="rotate(340.7 506.6 227.7)"/><ellipse cx="293.4" cy="511.9" rx="7.1" ry="3.1" fill="#633a26" opacity=".65" transform="rotate(91.8 293.4 511.9)"/><ellipse cx="89.1" cy="306.2" rx="5.7" ry="3.7" fill="#633a26" opacity=".65" transform="rotate(178.3 89.1 306.2)"/><ellipse cx="122.0" cy="179.9" rx="7.7" ry="2.1" fill="#633a26" opacity=".65" transform="rotate(214.0 122.0 179.9)"/><ellipse cx="472.2" cy="171.0" rx="5.4" ry="3.7" fill="#633a26" opacity=".65" transform="rotate(323.2 472.2 171.0)"/><ellipse cx="472.4" cy="170.9" rx="6.1" ry="2.4" fill="#633a26" opacity=".65" transform="rotate(323.2 472.4 170.9)"/><ellipse cx="500.0" cy="241.8" rx="2.4" ry="3.8" fill="#633a26" opacity=".65" transform="rotate(343.8 500.0 241.8)"/><ellipse cx="96.5" cy="242.5" rx="4.0" ry="1.0" fill="#633a26" opacity=".65" transform="rotate(195.8 96.5 242.5)"/><ellipse cx="85.9" cy="298.8" rx="4.1" ry="2.4" fill="#633a26" opacity=".65" transform="rotate(180.3 85.9 298.8)"/><ellipse cx="494.9" cy="228.1" rx="7.2" ry="3.5" fill="#633a26" opacity=".65" transform="rotate(339.7 494.9 228.1)"/><ellipse cx="375.9" cy="97.3" rx="5.3" ry="2.2" fill="#633a26" opacity=".65" transform="rotate(290.5 375.9 97.3)"/><ellipse cx="226.6" cy="110.6" rx="6.0" ry="1.8" fill="#633a26" opacity=".65" transform="rotate(248.8 226.6 110.6)"/><ellipse cx="250.0" cy="92.3" rx="6.9" ry="1.2" fill="#633a26" opacity=".65" transform="rotate(256.5 250.0 92.3)"/><ellipse cx="501.4" cy="233.8" rx="3.4" ry="3.5" fill="#633a26" opacity=".65" transform="rotate(341.8 501.4 233.8)"/><ellipse cx="406.5" cy="114.2" rx="7.7" ry="3.3" fill="#633a26" opacity=".65" transform="rotate(299.8 406.5 114.2)"/><ellipse cx="95.2" cy="339.7" rx="4.0" ry="1.5" fill="#633a26" opacity=".65" transform="rotate(169.0 95.2 339.7)"/><ellipse cx="488.8" cy="223.5" rx="6.8" ry="1.7" fill="#633a26" opacity=".65" transform="rotate(337.9 488.8 223.5)"/><ellipse cx="246.9" cy="506.8" rx="4.9" ry="3.4" fill="#633a26" opacity=".65" transform="rotate(104.4 246.9 506.8)"/><ellipse cx="272.5" cy="501.5" rx="2.8" ry="2.8" fill="#633a26" opacity=".65" transform="rotate(97.8 272.5 501.5)"/><ellipse cx="393.6" cy="482.9" rx="2.6" ry="1.4" fill="#633a26" opacity=".65" transform="rotate(62.9 393.6 482.9)"/><ellipse cx="476.1" cy="403.2" rx="3.0" ry="1.1" fill="#633a26" opacity=".65" transform="rotate(30.4 476.1 403.2)"/><ellipse cx="286.7" cy="513.9" rx="7.6" ry="1.3" fill="#633a26" opacity=".65" transform="rotate(93.6 286.7 513.9)"/><circle cx="300" cy="300" r="201" fill="url(#sauce)"/><circle cx="300" cy="300" r="190" fill="url(#cheese)" filter="url(#grain)"/><g clip-path="url(#top)"><ellipse cx="253.5" cy="294.2" rx="7.2" ry="3.4" fill="#b35527" opacity=".34"/><ellipse cx="195.9" cy="258.0" rx="6.2" ry="7.7" fill="#b35527" opacity=".34"/><ellipse cx="314.0" cy="360.6" rx="11.6" ry="3.7" fill="#b35527" opacity=".34"/><ellipse cx="309.4" cy="471.5" rx="11.4" ry="6.0" fill="#b35527" opacity=".34"/><ellipse cx="162.2" cy="239.6" rx="13.2" ry="6.9" fill="#b35527" opacity=".34"/><ellipse cx="402.9" cy="283.2" rx="12.0" ry="5.1" fill="#b35527" opacity=".34"/><ellipse cx="416.1" cy="327.2" rx="7.8" ry="8.7" fill="#b35527" opacity=".34"/><ellipse cx="340.4" cy="355.1" rx="4.8" ry="8.6" fill="#b35527" opacity=".34"/><ellipse cx="276.2" cy="129.6" rx="13.3" ry="7.2" fill="#b35527" opacity=".34"/><ellipse cx="253.2" cy="211.1" rx="4.1" ry="8.1" fill="#b35527" opacity=".34"/><ellipse cx="340.8" cy="373.2" rx="12.2" ry="9.1" fill="#b35527" opacity=".34"/><ellipse cx="345.7" cy="327.1" rx="11.4" ry="5.7" fill="#b35527" opacity=".34"/><ellipse cx="381.7" cy="281.5" rx="14.8" ry="4.2" fill="#b35527" opacity=".34"/><ellipse cx="392.0" cy="326.0" rx="9.9" ry="9.3" fill="#b35527" opacity=".34"/><ellipse cx="357.4" cy="400.7" rx="4.9" ry="8.4" fill="#b35527" opacity=".34"/><ellipse cx="130.6" cy="246.7" rx="12.2" ry="5.2" fill="#b35527" opacity=".34"/><ellipse cx="268.1" cy="183.1" rx="14.9" ry="5.5" fill="#b35527" opacity=".34"/><ellipse cx="246.3" cy="221.1" rx="12.0" ry="6.4" fill="#b35527" opacity=".34"/><ellipse cx="260.2" cy="217.0" rx="7.1" ry="4.7" fill="#b35527" opacity=".34"/><ellipse cx="350.2" cy="292.8" rx="9.8" ry="8.0" fill="#b35527" opacity=".34"/><ellipse cx="324.2" cy="242.0" rx="9.9" ry="9.1" fill="#b35527" opacity=".34"/><ellipse cx="351.8" cy="198.2" rx="10.7" ry="9.8" fill="#b35527" opacity=".34"/><ellipse cx="312.3" cy="345.4" rx="5.4" ry="6.1" fill="#b35527" opacity=".34"/><ellipse cx="258.5" cy="215.0" rx="13.9" ry="4.0" fill="#b35527" opacity=".34"/><ellipse cx="304.1" cy="269.5" rx="5.6" ry="7.8" fill="#b35527" opacity=".34"/><ellipse cx="457.3" cy="216.8" rx="10.9" ry="7.9" fill="#b35527" opacity=".34"/><ellipse cx="254.3" cy="278.5" rx="5.3" ry="8.2" fill="#b35527" opacity=".34"/><ellipse cx="341.9" cy="421.4" rx="8.6" ry="8.6" fill="#b35527" opacity=".34"/><ellipse cx="377.0" cy="297.8" rx="8.3" ry="4.4" fill="#b35527" opacity=".34"/><ellipse cx="175.7" cy="382.1" rx="7.4" ry="5.7" fill="#b35527" opacity=".34"/><ellipse cx="339.6" cy="245.9" rx="4.8" ry="7.8" fill="#b35527" opacity=".34"/><ellipse cx="258.1" cy="344.4" rx="14.8" ry="6.6" fill="#b35527" opacity=".34"/><ellipse cx="300.9" cy="411.2" rx="5.0" ry="5.7" fill="#b35527" opacity=".34"/><ellipse cx="152.3" cy="207.2" rx="7.3" ry="4.2" fill="#b35527" opacity=".34"/><ellipse cx="211.5" cy="209.2" rx="13.8" ry="4.0" fill="#b35527" opacity=".34"/><ellipse cx="437.8" cy="347.5" rx="4.8" ry="5.8" fill="#b35527" opacity=".34"/><ellipse cx="448.3" cy="316.3" rx="8.6" ry="7.6" fill="#b35527" opacity=".34"/><ellipse cx="421.4" cy="272.7" rx="9.0" ry="5.9" fill="#b35527" opacity=".34"/><ellipse cx="312.3" cy="257.1" rx="5.5" ry="9.2" fill="#b35527" opacity=".34"/><ellipse cx="202.2" cy="143.8" rx="8.5" ry="3.9" fill="#b35527" opacity=".34"/><ellipse cx="466.9" cy="291.8" rx="6.5" ry="4.9" fill="#b35527" opacity=".34"/><ellipse cx="419.8" cy="387.7" rx="14.9" ry="9.3" fill="#b35527" opacity=".34"/><ellipse cx="300.5" cy="393.9" rx="13.6" ry="4.4" fill="#b35527" opacity=".34"/><ellipse cx="284.9" cy="237.9" rx="11.0" ry="6.7" fill="#b35527" opacity=".34"/><ellipse cx="189.1" cy="436.9" rx="11.1" ry="4.1" fill="#b35527" opacity=".34"/><ellipse cx="126.6" cy="254.8" rx="8.6" ry="6.8" fill="#b35527" opacity=".34"/><ellipse cx="345.0" cy="298.7" rx="14.0" ry="7.5" fill="#b35527" opacity=".34"/><ellipse cx="248.3" cy="444.5" rx="13.0" ry="4.8" fill="#b35527" opacity=".34"/><ellipse cx="223.3" cy="307.4" rx="13.2" ry="9.4" fill="#b35527" opacity=".34"/><ellipse cx="399.2" cy="417.6" rx="14.2" ry="4.6" fill="#b35527" opacity=".34"/><ellipse cx="231.8" cy="157.5" rx="8.2" ry="3.6" fill="#b35527" opacity=".34"/><ellipse cx="409.1" cy="194.8" rx="4.9" ry="7.7" fill="#b35527" opacity=".34"/><path d="M330.0 300.0q-10-25 15-27t25 24q-6 24-29 18t-11-15Z" fill="#fff2ce" opacity=".88"/><path d="M243.7 337.8q-10-25 15-27t25 24q-6 24-29 18t-11-15Z" fill="#fff2ce" opacity=".88"/><path d="M290.9 233.3q-10-25 15-27t25 24q-6 24-29 18t-11-15Z" fill="#fff2ce" opacity=".88"/><path d="M332.5 361.9q-10-25 15-27t25 24q-6 24-29 18t-11-15Z" fill="#fff2ce" opacity=".88"/><path d="M197.4 284.5q-10-25 15-27t25 24q-6 24-29 18t-11-15Z" fill="#fff2ce" opacity=".88"/><path d="M369.4 246.3q-10-25 15-27t25 24q-6 24-29 18t-11-15Z" fill="#fff2ce" opacity=".88"/><path d="M256.2 407.2q-10-25 15-27t25 24q-6 24-29 18t-11-15Z" fill="#fff2ce" opacity=".88"/><path d="M228.8 191.7q-10-25 15-27t25 24q-6 24-29 18t-11-15Z" fill="#fff2ce" opacity=".88"/><path d="M409.9 345.7q-10-25 15-27t25 24q-6 24-29 18t-11-15Z" fill="#fff2ce" opacity=".88"/><path d="M151.9 354.9q-10-25 15-27t25 24q-6 24-29 18t-11-15Z" fill="#fff2ce" opacity=".88"/><path d="M350.7 159.6q-10-25 15-27t25 24q-6 24-29 18t-11-15Z" fill="#fff2ce" opacity=".88"/><path d="M334.6 458.4q-10-25 15-27t25 24q-6 24-29 18t-11-15Z" fill="#fff2ce" opacity=".88"/><circle cx="345.0" cy="300.0" r="25" fill="#ad3529" stroke="#e56d43" stroke-width="3"/><circle cx="335.7" cy="289.6" r="2.2" fill="#ffc8a0" opacity=".65"/><circle cx="332.6" cy="289.4" r="2.2" fill="#ffc8a0" opacity=".65"/><circle cx="347.0" cy="302.3" r="2.2" fill="#ffc8a0" opacity=".65"/><circle cx="352.2" cy="314.9" r="2.2" fill="#ffc8a0" opacity=".65"/><circle cx="344.8" cy="297.1" r="2.2" fill="#ffc8a0" opacity=".65"/><circle cx="331.0" cy="288.1" r="2.2" fill="#ffc8a0" opacity=".65"/><circle cx="347.6" cy="297.1" r="2.2" fill="#ffc8a0" opacity=".65"/><circle cx="336.7" cy="297.9" r="2.2" fill="#ffc8a0" opacity=".65"/><circle cx="348.3" cy="289.6" r="2.2" fill="#ffc8a0" opacity=".65"/><circle cx="340.5" cy="309.2" r="2.2" fill="#ffc8a0" opacity=".65"/><circle cx="259.4" cy="337.2" r="25" fill="#ad3529" stroke="#e56d43" stroke-width="3"/><circle cx="260.7" cy="330.5" r="2.2" fill="#ffc8a0" opacity=".65"/><circle cx="257.8" cy="329.1" r="2.2" fill="#ffc8a0" opacity=".65"/><circle cx="244.7" cy="340.2" r="2.2" fill="#ffc8a0" opacity=".65"/><circle cx="246.8" cy="341.3" r="2.2" fill="#ffc8a0" opacity=".65"/><circle cx="259.3" cy="334.9" r="2.2" fill="#ffc8a0" opacity=".65"/><circle cx="250.5" cy="350.9" r="2.2" fill="#ffc8a0" opacity=".65"/><circle cx="245.9" cy="344.8" r="2.2" fill="#ffc8a0" opacity=".65"/><circle cx="255.4" cy="336.4" r="2.2" fill="#ffc8a0" opacity=".65"/><circle cx="274.0" cy="325.0" r="2.2" fill="#ffc8a0" opacity=".65"/><circle cx="264.2" cy="350.2" r="2.2" fill="#ffc8a0" opacity=".65"/><circle cx="305.7" cy="235.2" r="25" fill="#ad3529" stroke="#e56d43" stroke-width="3"/><circle cx="297.0" cy="220.3" r="2.2" fill="#ffc8a0" opacity=".65"/><circle cx="306.2" cy="238.2" r="2.2" fill="#ffc8a0" opacity=".65"/><circle cx="291.7" cy="223.3" r="2.2" fill="#ffc8a0" opacity=".65"/><circle cx="316.2" cy="235.5" r="2.2" fill="#ffc8a0" opacity=".65"/><circle cx="299.5" cy="245.7" r="2.2" fill="#ffc8a0" opacity=".65"/><circle cx="301.6" cy="221.5" r="2.2" fill="#ffc8a0" opacity=".65"/><circle cx="293.1" cy="235.1" r="2.2" fill="#ffc8a0" opacity=".65"/><circle cx="302.5" cy="223.0" r="2.2" fill="#ffc8a0" opacity=".65"/><circle cx="300.7" cy="241.5" r="2.2" fill="#ffc8a0" opacity=".65"/><circle cx="306.2" cy="221.9" r="2.2" fill="#ffc8a0" opacity=".65"/><circle cx="345.6" cy="359.5" r="25" fill="#ad3529" stroke="#e56d43" stroke-width="3"/><circle cx="356.4" cy="358.2" r="2.2" fill="#ffc8a0" opacity=".65"/><circle cx="357.4" cy="355.3" r="2.2" fill="#ffc8a0" opacity=".65"/><circle cx="330.7" cy="359.8" r="2.2" fill="#ffc8a0" opacity=".65"/><circle cx="348.0" cy="356.6" r="2.2" fill="#ffc8a0" opacity=".65"/><circle cx="336.0" cy="371.7" r="2.2" fill="#ffc8a0" opacity=".65"/><circle cx="356.1" cy="366.1" r="2.2" fill="#ffc8a0" opacity=".65"/><circle cx="342.6" cy="349.2" r="2.2" fill="#ffc8a0" opacity=".65"/><circle cx="350.6" cy="368.3" r="2.2" fill="#ffc8a0" opacity=".65"/><circle cx="348.0" cy="368.7" r="2.2" fill="#ffc8a0" opacity=".65"/><circle cx="343.7" cy="354.2" r="2.2" fill="#ffc8a0" opacity=".65"/><circle cx="216.3" cy="285.2" r="25" fill="#ad3529" stroke="#e56d43" stroke-width="3"/><circle cx="230.7" cy="289.0" r="2.2" fill="#ffc8a0" opacity=".65"/><circle cx="207.9" cy="273.9" r="2.2" fill="#ffc8a0" opacity=".65"/><circle cx="227.7" cy="286.6" r="2.2" fill="#ffc8a0" opacity=".65"/><circle cx="212.3" cy="281.8" r="2.2" fill="#ffc8a0" opacity=".65"/><circle cx="204.5" cy="276.9" r="2.2" fill="#ffc8a0" opacity=".65"/><circle cx="206.4" cy="299.6" r="2.2" fill="#ffc8a0" opacity=".65"/><circle cx="217.0" cy="287.1" r="2.2" fill="#ffc8a0" opacity=".65"/><circle cx="228.4" cy="299.4" r="2.2" fill="#ffc8a0" opacity=".65"/><circle cx="202.8" cy="297.1" r="2.2" fill="#ffc8a0" opacity=".65"/><circle cx="218.8" cy="271.3" r="2.2" fill="#ffc8a0" opacity=".65"/><circle cx="380.2" cy="249.0" r="25" fill="#ad3529" stroke="#e56d43" stroke-width="3"/><circle cx="381.6" cy="263.2" r="2.2" fill="#ffc8a0" opacity=".65"/><circle cx="388.7" cy="249.2" r="2.2" fill="#ffc8a0" opacity=".65"/><circle cx="381.5" cy="260.9" r="2.2" fill="#ffc8a0" opacity=".65"/><circle cx="374.8" cy="247.5" r="2.2" fill="#ffc8a0" opacity=".65"/><circle cx="389.8" cy="252.5" r="2.2" fill="#ffc8a0" opacity=".65"/><circle cx="382.9" cy="248.6" r="2.2" fill="#ffc8a0" opacity=".65"/><circle cx="374.1" cy="259.4" r="2.2" fill="#ffc8a0" opacity=".65"/><circle cx="376.3" cy="234.9" r="2.2" fill="#ffc8a0" opacity=".65"/><circle cx="365.4" cy="247.8" r="2.2" fill="#ffc8a0" opacity=".65"/><circle cx="378.8" cy="238.2" r="2.2" fill="#ffc8a0" opacity=".65"/><circle cx="272.7" cy="401.4" r="25" fill="#ad3529" stroke="#e56d43" stroke-width="3"/><circle cx="284.4" cy="407.1" r="2.2" fill="#ffc8a0" opacity=".65"/><circle cx="277.0" cy="393.0" r="2.2" fill="#ffc8a0" opacity=".65"/><circle cx="266.9" cy="403.4" r="2.2" fill="#ffc8a0" opacity=".65"/><circle cx="275.6" cy="391.0" r="2.2" fill="#ffc8a0" opacity=".65"/><circle cx="266.7" cy="399.8" r="2.2" fill="#ffc8a0" opacity=".65"/><circle cx="285.5" cy="413.3" r="2.2" fill="#ffc8a0" opacity=".65"/><circle cx="262.6" cy="391.5" r="2.2" fill="#ffc8a0" opacity=".65"/><circle cx="276.9" cy="404.3" r="2.2" fill="#ffc8a0" opacity=".65"/><circle cx="259.9" cy="411.3" r="2.2" fill="#ffc8a0" opacity=".65"/><circle cx="277.2" cy="402.1" r="2.2" fill="#ffc8a0" opacity=".65"/><circle cx="247.0" cy="197.9" r="25" fill="#ad3529" stroke="#e56d43" stroke-width="3"/><circle cx="254.7" cy="198.1" r="2.2" fill="#ffc8a0" opacity=".65"/><circle cx="235.3" cy="203.3" r="2.2" fill="#ffc8a0" opacity=".65"/><circle cx="256.6" cy="189.4" r="2.2" fill="#ffc8a0" opacity=".65"/><circle cx="247.4" cy="201.4" r="2.2" fill="#ffc8a0" opacity=".65"/><circle cx="239.1" cy="185.6" r="2.2" fill="#ffc8a0" opacity=".65"/><circle cx="235.1" cy="202.8" r="2.2" fill="#ffc8a0" opacity=".65"/><circle cx="253.6" cy="195.0" r="2.2" fill="#ffc8a0" opacity=".65"/><circle cx="242.7" cy="197.6" r="2.2" fill="#ffc8a0" opacity=".65"/><circle cx="237.0" cy="207.8" r="2.2" fill="#ffc8a0" opacity=".65"/><circle cx="239.7" cy="189.8" r="2.2" fill="#ffc8a0" opacity=".65"/><circle cx="417.4" cy="342.9" r="25" fill="#ad3529" stroke="#e56d43" stroke-width="3"/><circle cx="406.9" cy="332.9" r="2.2" fill="#ffc8a0" opacity=".65"/><circle cx="411.5" cy="335.9" r="2.2" fill="#ffc8a0" opacity=".65"/><circle cx="403.1" cy="336.4" r="2.2" fill="#ffc8a0" opacity=".65"/><circle cx="405.1" cy="352.4" r="2.2" fill="#ffc8a0" opacity=".65"/><circle cx="425.0" cy="343.4" r="2.2" fill="#ffc8a0" opacity=".65"/><circle cx="425.2" cy="357.6" r="2.2" fill="#ffc8a0" opacity=".65"/><circle cx="412.4" cy="338.7" r="2.2" fill="#ffc8a0" opacity=".65"/><circle cx="414.3" cy="331.6" r="2.2" fill="#ffc8a0" opacity=".65"/><circle cx="426.7" cy="356.6" r="2.2" fill="#ffc8a0" opacity=".65"/><circle cx="405.1" cy="351.8" r="2.2" fill="#ffc8a0" opacity=".65"/><circle cx="175.2" cy="351.5" r="25" fill="#ad3529" stroke="#e56d43" stroke-width="3"/><circle cx="183.7" cy="350.8" r="2.2" fill="#ffc8a0" opacity=".65"/><circle cx="178.2" cy="347.5" r="2.2" fill="#ffc8a0" opacity=".65"/><circle cx="179.6" cy="345.3" r="2.2" fill="#ffc8a0" opacity=".65"/><circle cx="173.9" cy="363.1" r="2.2" fill="#ffc8a0" opacity=".65"/><circle cx="162.3" cy="361.0" r="2.2" fill="#ffc8a0" opacity=".65"/><circle cx="188.2" cy="338.1" r="2.2" fill="#ffc8a0" opacity=".65"/><circle cx="172.5" cy="341.9" r="2.2" fill="#ffc8a0" opacity=".65"/><circle cx="175.9" cy="348.5" r="2.2" fill="#ffc8a0" opacity=".65"/><circle cx="173.9" cy="344.2" r="2.2" fill="#ffc8a0" opacity=".65"/><circle cx="164.0" cy="349.9" r="2.2" fill="#ffc8a0" opacity=".65"/><circle cx="361.5" cy="168.7" r="25" fill="#ad3529" stroke="#e56d43" stroke-width="3"/><circle cx="367.4" cy="163.2" r="2.2" fill="#ffc8a0" opacity=".65"/><circle cx="353.8" cy="183.2" r="2.2" fill="#ffc8a0" opacity=".65"/><circle cx="371.6" cy="174.9" r="2.2" fill="#ffc8a0" opacity=".65"/><circle cx="369.1" cy="176.6" r="2.2" fill="#ffc8a0" opacity=".65"/><circle cx="348.8" cy="163.2" r="2.2" fill="#ffc8a0" opacity=".65"/><circle cx="369.8" cy="164.3" r="2.2" fill="#ffc8a0" opacity=".65"/><circle cx="370.5" cy="166.7" r="2.2" fill="#ffc8a0" opacity=".65"/><circle cx="370.7" cy="180.1" r="2.2" fill="#ffc8a0" opacity=".65"/><circle cx="370.6" cy="154.2" r="2.2" fill="#ffc8a0" opacity=".65"/><circle cx="350.6" cy="175.5" r="2.2" fill="#ffc8a0" opacity=".65"/><circle cx="346.3" cy="447.9" r="25" fill="#ad3529" stroke="#e56d43" stroke-width="3"/><circle cx="332.0" cy="462.7" r="2.2" fill="#ffc8a0" opacity=".65"/><circle cx="334.6" cy="446.6" r="2.2" fill="#ffc8a0" opacity=".65"/><circle cx="346.6" cy="440.9" r="2.2" fill="#ffc8a0" opacity=".65"/><circle cx="342.7" cy="439.8" r="2.2" fill="#ffc8a0" opacity=".65"/><circle cx="343.5" cy="459.3" r="2.2" fill="#ffc8a0" opacity=".65"/><circle cx="349.5" cy="440.7" r="2.2" fill="#ffc8a0" opacity=".65"/><circle cx="333.2" cy="439.0" r="2.2" fill="#ffc8a0" opacity=".65"/><circle cx="359.2" cy="434.6" r="2.2" fill="#ffc8a0" opacity=".65"/><circle cx="354.5" cy="444.2" r="2.2" fill="#ffc8a0" opacity=".65"/><circle cx="353.7" cy="458.9" r="2.2" fill="#ffc8a0" opacity=".65"/><circle cx="157.3" cy="217.2" r="25" fill="#ad3529" stroke="#e56d43" stroke-width="3"/><circle cx="154.7" cy="227.5" r="2.2" fill="#ffc8a0" opacity=".65"/><circle cx="170.5" cy="215.5" r="2.2" fill="#ffc8a0" opacity=".65"/><circle cx="166.2" cy="217.0" r="2.2" fill="#ffc8a0" opacity=".65"/><circle cx="147.0" cy="231.3" r="2.2" fill="#ffc8a0" opacity=".65"/><circle cx="148.1" cy="212.7" r="2.2" fill="#ffc8a0" opacity=".65"/><circle cx="167.9" cy="216.6" r="2.2" fill="#ffc8a0" opacity=".65"/><circle cx="161.2" cy="226.0" r="2.2" fill="#ffc8a0" opacity=".65"/><circle cx="167.8" cy="231.0" r="2.2" fill="#ffc8a0" opacity=".65"/><circle cx="142.6" cy="217.3" r="2.2" fill="#ffc8a0" opacity=".65"/><circle cx="156.8" cy="212.4" r="2.2" fill="#ffc8a0" opacity=".65"/></g><circle cx="463.6" cy="314.4" r="1" fill="#f1ebc9" opacity=".7"/><circle cx="358.7" cy="516.0" r="1" fill="#f1ebc9" opacity=".7"/><circle cx="441.4" cy="80.4" r="1" fill="#f1ebc9" opacity=".7"/><circle cx="506.7" cy="167.6" r="1" fill="#f1ebc9" opacity=".7"/><circle cx="123.2" cy="404.0" r="1" fill="#f1ebc9" opacity=".7"/><circle cx="434.9" cy="370.6" r="1" fill="#f1ebc9" opacity=".7"/><circle cx="178.4" cy="487.3" r="1" fill="#f1ebc9" opacity=".7"/><circle cx="155.9" cy="344.4" r="1" fill="#f1ebc9" opacity=".7"/><circle cx="275.0" cy="267.7" r="1" fill="#f1ebc9" opacity=".7"/><circle cx="202.5" cy="367.1" r="1" fill="#f1ebc9" opacity=".7"/><circle cx="353.2" cy="208.4" r="1" fill="#f1ebc9" opacity=".7"/><circle cx="339.8" cy="88.9" r="1" fill="#f1ebc9" opacity=".7"/><circle cx="482.8" cy="442.2" r="1" fill="#f1ebc9" opacity=".7"/><circle cx="116.7" cy="364.8" r="1" fill="#f1ebc9" opacity=".7"/><circle cx="173.8" cy="431.7" r="1" fill="#f1ebc9" opacity=".7"/><circle cx="159.1" cy="93.6" r="1" fill="#f1ebc9" opacity=".7"/><circle cx="331.6" cy="444.8" r="1" fill="#f1ebc9" opacity=".7"/><circle cx="389.4" cy="287.5" r="1" fill="#f1ebc9" opacity=".7"/><circle cx="469.7" cy="418.2" r="1" fill="#f1ebc9" opacity=".7"/><circle cx="84.8" cy="328.5" r="1" fill="#f1ebc9" opacity=".7"/><circle cx="211.2" cy="228.1" r="1" fill="#f1ebc9" opacity=".7"/><circle cx="163.4" cy="483.0" r="1" fill="#f1ebc9" opacity=".7"/><circle cx="183.6" cy="344.7" r="1" fill="#f1ebc9" opacity=".7"/><circle cx="509.9" cy="311.3" r="1" fill="#f1ebc9" opacity=".7"/><circle cx="349.4" cy="108.2" r="1" fill="#f1ebc9" opacity=".7"/><circle cx="165.7" cy="135.6" r="1" fill="#f1ebc9" opacity=".7"/><circle cx="101.4" cy="462.7" r="1" fill="#f1ebc9" opacity=".7"/><circle cx="321.1" cy="422.5" r="1" fill="#f1ebc9" opacity=".7"/><circle cx="281.2" cy="315.0" r="1" fill="#f1ebc9" opacity=".7"/><circle cx="480.3" cy="95.4" r="1" fill="#f1ebc9" opacity=".7"/></svg>