<svg xmlns="http://www.w3.org/2000/svg" viewBox="0 0 600 600" role="img" aria-label="Illustration de la pizza Quatre fromages"><defs><radialGradient id="dough"><stop stop-color="#f4cf85"/><stop offset=".82" stop-color="#d5a05c"/><stop offset="1" stop-color="#a56836"/></radialGradient><radialGradient id="cheese"><stop stop-color="#fff0bb"/><stop offset=".8" stop-color="#eeb85f"/><stop offset="1" stop-color="#d98939"/></radialGradient><radialGradient id="sauce"><stop stop-color="#d65734"/><stop offset="1" stop-color="#a33825"/></radialGradient><filter id="shadow" x="-.3" y="-.3" width="1.6" height="1.6"><feGaussianBlur stdDeviation="9"/></filter><filter id="grain"><feTurbulence type="fractalNoise" baseFrequency=".6" numOctaves="3" seed="18"/><feColorMatrix type="saturate" values="0"/><feComponentTransfer><feFuncA type="linear" slope=".12"/></feComponentTransfer><feBlend in="SourceGraphic" mode="multiply"/></filter><clipPath id="top"><circle cx="300" cy="300" r="202"/></clipPath></defs><rect width="600" height="600" fill="#ddd6b8"/><ellipse cx="301" cy="323" rx="238" ry="230" fill="#3c2717" opacity=".22" filter="url(#shadow)"/><circle cx="300" cy="300" r="241" fill="#ede2cb"/><circle cx="300" cy="300" r="232" fill="#fff8e8"/><circle cx="300" cy="300" r="224" fill="url(#dough)" filter="url(#grain)"/><ellipse cx="401.0" cy="118.2" rx="7.8" ry="2.8" fill="#633a26" opacity=".65" transform="rotate(299.1 401.0 118.2)"/><ellipse cx="320.2" cy="504.5" rx="2.9" ry="2.2" fill="#633a26" opacity=".65" transform="rotate(84.4 320.2 504.5)"/><ellipse cx="431.1" cy="475.0" rx="3.6" ry="1.6" fill="#633a26" opacity=".65" transform="rotate(53.2 431.1 475.0)"/><ellipse cx="137.6" cy="173.7" rx="3.6" ry="3.5" fill="#633a26" opacity=".65" transform="rotate(217.9 137.6 173.7)"/><ellipse cx="511.0" cy="335.1" rx="6.1" ry="2.7" fill="#633a26" opacity=".65" transform="rotate(9.4 511.0 335.1)"/><ellipse cx="507.8" cy="328.4" rx="7.9" ry="3.9" fill="#633a26" opacity=".65" transform="rotate(7.8 507.8 328.4)"/><ellipse cx="321.5" cy="91.0" rx="3.7" ry="1.0" fill="#633a26" opacity=".65" transform="rotate(275.9 321.5 91.0)"/><ellipse cx="473.6" cy="168.5" rx="2.7" ry="2.3" fill="#633a26" opacity=".65" transform="rotate(322.9 473.6 168.5)"/><ellipse cx="504.7" cy="295.0" rx="3.2" ry="1.4" fill="#633a26" opacity=".65" transform="rotate(358.6 504.7 295.0)"/><ellipse cx="101.7" cy="215.1" rx="7.7" ry="3.0" fill="#633a26" opacity=".65" transform="rotate(203.2 101.7 215.1)"/><ellipse cx="341.5" cy="100.2" rx="3.1" ry="3.4" fill="#633a26" opacity=".65" transform="rotate(281.7 341.5 100.2)"/><ellipse cx="101.1" cy="342.0" rx="4.4" ry="1.3" fill="#633a26" opacity=".65" transform="rotate(168.1 101.1 342.0)"/><ellipse cx="169.4" cy="129.5" rx="6.0" ry="2.9" fill="#633a26" opacity=".65" transform="rotate(232.6 169.4 129.5)"/><ellipse cx="484.4" cy="203.0" rx="3.0" ry="3.6" fill="#633a26" opacity=".65" transform="rotate(332.3 484.4 203.0)"/><ellipse cx="205.8" cy="485.3" rx="5.3" ry="1.4" fill="#633a26" opacity=".65" transform="rotate(116.9 205.8 485.3)"/><ellipse cx="417.7" cy="471.3" rx="7.2" ry="3.3" fill="#633a26" opacity=".65" transform="rotate(55.5 417.7 471.3)"/><ellipse cx="317.5" cy="513.8" rx="4.9" ry="1.7" fill="#633a26" opacity=".65" transform="rotate(85.3 317.5 513.8)"/><ellipse cx="321.6" cy="504.0" rx="8.0" ry="2.9" fill="#633a26" opacity=".65" transform="rotate(83.9 321.6 504.0)"/><ellipse cx="273.5" cy="505.9" rx="4.1" ry="3.8" fill="#633a26" opacity=".65" transform="rotate(97.3 273.5 505.9)"/><ellipse cx="268.0" cy="511.5" rx="6.7" ry="3.3" fill="#633a26" opacity=".65" transform="rotate(98.6 268.0 511.5)"/><ellipse cx="455.0" cy="161.7" rx="5.6" ry="2.8" fill="#633a26" opacity=".65" transform="rotate(318.3 455.0 161.7)"/><ellipse cx="470.1" cy="165.2" rx="5.6" ry="2.8" fill="#633a26" opacity=".65" transform="rotate(321.6 470.1 165.2)"/><ellipse cx="505.5" cy="300.9" rx="2.9" ry="2.1" fill="#633a26" opacity=".65" transform="rotate(0.2 505.5 300.9)"/><ellipse cx="368.7" cy="501.1" rx="4.0" ry="1.2" fill="#633a26" opacity=".65" transform="rotate(71.1 368.7 501.1)"/><ellipse cx="304.6" cy="93.8" rx="4.5" ry="2.6" fill="#633a26" opacity=".65" transform="rotate(271.3 304.6 93.8)"/><ellipse cx="369.7" cy="107.6" rx="4.2" ry="2.3" fill="#633a26" opacity=".65" transform="rotate(289.9 369.7 107.6)"/><ellipse cx="465.5" cy="159.4" rx="4.2" ry="3.8" fill="#633a26" opacity=".65" transform="rotate(319.6 465.5 159.4)"/><ellipse cx="284.1" cy="95.3" rx="7.0" ry="3.7" fill="#633a26" opacity=".65" transform="rotate(265.5 284.1 95.3)"/><ellipse cx="351.4" cy="99.9" rx="6.7" ry="1.2" fill="#633a26" opacity=".65" transform="rotate(284.4 351.4 99.9)"/><ellipse cx="164.1" cy="464.4" rx="2.4" ry="1.1" fill="#633a26" opacity=".65" transform="rotate(129.6 164.1 464.4)"/><ellipse cx="500.4" cy="337.3" rx="3.7" ry="1.5" fill="#633a26" opacity=".65" transform="rotate(10.6 500.4 337.3)"/><ellipse cx="492.3" cy="395.7" rx="4.1" ry="2.4" fill="#633a26" opacity=".65" transform="rotate(26.5 492.3 395.7)"/><ellipse cx="373.4" cy="493.9" rx="7.8" ry="1.3" fill="#633a26" opacity=".65" transform="rotate(69.3 373.4 493.9)"/><ellipse cx="118.4" cy="202.7" rx="4.7" ry="2.1" fill="#633a26" opacity=".65" transform="rotate(208.2 118.4 202.7)"/><ellipse cx="330.3" cy="93.7" rx="2.4" ry="2.2" fill="#633a26" opacity=".65" transform="rotate(278.3 330.3 93.7)"/><ellipse cx="488.6" cy="218.3" rx="5.7" ry="1.4" fill="#633a26" opacity=".65" transform="rotate(336.6 488.6 218.3)"/><ellipse cx="104.8" cy="223.1" rx="3.7" ry="2.8" fill="#633a26" opacity=".65" transform="rotate(201.5 104.8 223.1)"/><ellipse cx="103.2" cy="229.4" rx="7.0" ry="2.5" fill="#633a26" opacity=".65" transform="rotate(199.7 103.2 229.4)"/><ellipse cx="102.6" cy="213.9" rx="3.4" ry="2.9" fill="#633a26" opacity=".65" transform="rotate(203.6 102.6 213.9)"/><ellipse cx="99.5" cy="222.6" rx="6.1" ry="3.5" fill="#633a26" opacity=".65" transform="rotate(201.1 99.5 222.6)"/><ellipse cx="223.8" cy="96.6" rx="7.8" ry="2.1" fill="#633a26" opacity=".65" transform="rotate(249.5 223.8 96.6)"/><ellipse cx="93.9" cy="264.9" rx="4.1" ry="3.1" fill="#633a26" opacity=".65" transform="rotate(189.7 93.9 264.9)"/><ellipse cx="93.4" cy="249.0" rx="7.2" ry="1.5" fill="#633a26" opacity=".65" transform="rotate(193.9 93.4 249.0)"/><ellipse cx="191.2" cy="127.9" rx="3.0" ry="2.7" fill="#633a26" opacity=".65" transform="rotate(237.7 191.2 127.9)"/><ellipse cx="225.1" cy="489.8" rx="5.7" ry="2.0" fill="#633a26" opacity=".65" transform="rotate(111.5 225.1 489.8)"/><ellipse cx="511.3" cy="316.9" rx="3.8" ry="3.3" fill="#633a26" opacity=".65" transform="rotate(4.6 511.3 316.9)"/><ellipse cx="190.1" cy="121.0" rx="4.4" ry="2.0" fill="#633a26" opacity=".65" transform="rotate(238.4 190.1 121.0)"/><ellipse cx="434.8" cy="469.1" rx="7.1" ry="1.1" fill="#633a26" opacity=".65" transform="rotate(51.4 434.8 469.1)"/><ellipse cx="115.9" cy="394.6" rx="4.2" ry="2.0" fill="#633a26" opacity=".65" transform="rotate(152.8 115.9 394.6)"/><ellipse cx="503.7" cy="353.3" rx="6.4" ry="3.3" fill="#633a26" opacity=".65" transform="rotate(14.7 503.7 353.3)"/><ellipse cx="103.2" cy="212.3" rx="4.0" ry="1.6" fill="#633a26" opacity=".65" transform="rotate(204.0 103.2 212.3)"/><ellipse cx="130.3" cy="163.7" rx="6.0" ry="2.9" fill="#633a26" opacity=".65" transform="rotate(218.8 130.3 163.7)"/><ellipse cx="127.8" cy="181.5" rx="7.0" ry="1.2" fill="#633a26" opacity=".65" transform="rotate(214.5 127.8 181.5)"/><ellipse cx="120.8" cy="404.1" rx="5.5" ry="1.9" fill="#633a26" opacity=".65" transform="rotate(149.8 120.8 404.1)"/><ellipse cx="431.3" cy="135.3" rx="2.6" ry="3.0" fill="#633a26" opacity=".65" transform="rotate(308.6 431.3 135.3)"/><ellipse cx="138.7" cy="169.5" rx="3.0" ry="1.8" fill="#633a26" opacity=".65" transform="rotate(219.0 138.7 169.5)"/><ellipse cx="377.1" cy="491.5" rx="5.3" ry="2.6" fill="#633a26" opacity=".65" transform="rotate(68.1 377.1 491.5)"/><ellipse cx="119.7" cy="403.8" rx="6.2" ry="3.7" fill="#633a26" opacity=".65" transform="rotate(150.1 119.7 403.8)"/><ellipse cx="322.9" cy="83.0" rx="3.2" ry="1.8" fill="#633a26" opacity=".65" transform="rotate(276.0 322.9 83.0)"/><ellipse cx="97.0" cy="275.5" rx="3.8" ry="2.2" fill="#633a26" opacity=".65" transform="rotate(186.9 97.0 275.5)"/><ellipse cx="93.8" cy="354.9" rx="5.5" ry="2.5" fill="#633a26" opacity=".65" transform="rotate(165.1 93.8 354.9)"/><ellipse cx="421.0" cy="134.6" rx="7.3" ry="2.9" fill="#633a26" opacity=".65" transform="rotate(306.2 421.0 134.6)"/><ellipse cx="448.8" cy="444.7" rx="4.4" ry="3.5" fill="#633a26" opacity=".65" transform="rotate(44.2 448.8 444.7)"/><ellipse cx="502.8" cy="381.3" rx="2.9" ry="3.2" fill="#633a26" opacity=".65" transform="rotate(21.8 502.8 381.3)"/><ellipse cx="501.3" cy="223.3" rx="5.8" ry="3.4" fill="#633a26" opacity=".65" transform="rotate(339.1 501.3 223.3)"/><ellipse cx="496.2" cy="394.7" rx="7.9" ry="2.4" fill="#633a26" opacity=".65" transform="rotate(25.8 496.2 394.7)"/><ellipse cx="130.0" cy="165.5" rx="3.3" ry="1.6" fill="#633a26" opacity=".65" transform="rotate(218.4 130.0 165.5)"/><ellipse cx="95.8" cy="291.9" rx="5.3" ry="3.6" fill="#633a26" opacity=".65" transform="rotate(182.3 95.8 291.9)"/><ellipse cx="226.8" cy="101.3" rx="5.2" ry="1.4" fill="#633a26" opacity=".65" transform="rotate(249.8 226.8 101.3)"/><ellipse cx="178.0" cy="471.1" rx="6.6" ry="2.9" fill="#633a26" opacity=".65" transform="rotate(125.5 178.0 471.1)"/><ellipse cx="267.3" cy="501.2" rx="3.5" ry="3.0" fill="#633a26" opacity=".65" transform="rotate(99.2 267.3 501.2)"/><ellipse cx="483.0" cy="391.7" rx="2.1" ry="2.8" fill="#633a26" opacity=".65" transform="rotate(26.6 483.0 391.7)"/><ellipse cx="141.6" cy="166.3" rx="5.1" ry="3.3" fill="#633a26" opacity=".65" transform="rotate(220.2 141.6 166.3)"/><ellipse cx="97.4" cy="258.5" rx="3.7" ry="1.1" fill="#633a26" opacity=".65" transform="rotate(191.6 97.4 258.5)"/><ellipse cx="316.8" cy="88.1" rx="6.0" ry="1.9" fill="#633a26" opacity=".65" transform="rotate(274.5 316.8 88.1)"/><ellipse cx="332.3" cy="501.5" rx="5.7" ry="3.7" fill="#633a26" opacity=".65" transform="rotate(80.9 332.3 501.5)"/><ellipse cx="98.7" cy="219.2" rx="7.2" ry="2.0" fill="#633a26" opacity=".65" transform="rotate(201.9 98.7 219.2)"/><ellipse cx="190.5" cy="487.4" rx="4.7" ry="3.8" fill="#633a26" opacity=".65" transform="rotate(120.3 190.5 487.4)"/><ellipse cx="121.8" cy="403.2" rx="5.6" ry="1.3" fill="#633a26" opacity=".65" transform="rotate(149.9 121.8 403.2)"/><ellipse cx="468.2" cy="428.7" rx="2.3" ry="2.2" fill="#633a26" opacity=".65" transform="rotate(37.4 468.2 428.7)"/><circle cx="300" cy="300" r="201" fill="url(#sauce)"/><circle cx="300" cy="300" r="190" fill="url(#cheese)" filter="url(#grain)"/><g clip-path="url(#top)"><ellipse cx="376.4" cy="255.0" rx="8.5" ry="8.8" fill="#b35527" opacity=".34"/><ellipse cx="159.0" cy="277.3" rx="8.3" ry="7.3" fill="#b35527" opacity=".34"/><ellipse cx="353.4" cy="262.3" rx="7.5" ry="4.8" fill="#b35527" opacity=".34"/><ellipse cx="324.9" cy="409.9" rx="11.5" ry="5.0" fill="#b35527" opacity=".34"/><ellipse cx="431.4" cy="193.2" rx="12.6" ry="8.9" fill="#b35527" opacity=".34"/><ellipse cx="403.8" cy="350.0" rx="9.6" ry="6.9" fill="#b35527" opacity=".34"/><ellipse cx="263.0" cy="175.3" rx="13.8" ry="3.9" fill="#b35527" opacity=".34"/><ellipse cx="339.7" cy="323.4" rx="4.6" ry="5.4" fill="#b35527" opacity=".34"/><ellipse cx="261.6" cy="215.9" rx="7.8" ry="8.6" fill="#b35527" opacity=".34"/><ellipse cx="280.4" cy="344.4" rx="12.2" ry="3.0" fill="#b35527" opacity=".34"/><ellipse cx="454.3" cy="349.3" rx="6.8" ry="8.3" fill="#b35527" opacity=".34"/><ellipse cx="148.3" cy="352.4" rx="6.6" ry="7.3" fill="#b35527" opacity=".34"/><ellipse cx="196.1" cy="327.4" rx="4.0" ry="7.2" fill="#b35527" opacity=".34"/><ellipse cx="281.2" cy="360.2" rx="14.9" ry="8.7" fill="#b35527" opacity=".34"/><ellipse cx="421.8" cy="281.4" rx="11.8" ry="7.2" fill="#b35527" opacity=".34"/><ellipse cx="468.2" cy="386.1" rx="10.5" ry="3.5" fill="#b35527" opacity=".34"/><ellipse cx="185.6" cy="340.3" rx="9.5" ry="4.1" fill="#b35527" opacity=".34"/><ellipse cx="279.2" cy="274.0" rx="14.7" ry="7.1" fill="#b35527" opacity=".34"/><ellipse cx="327.7" cy="196.5" rx="4.4" ry="4.5" fill="#b35527" opacity=".34"/><ellipse cx="377.2" cy="338.4" rx="14.5" ry="7.1" fill="#b35527" opacity=".34"/><ellipse cx="355.0" cy="294.5" rx="7.5" ry="7.4" fill="#b35527" opacity=".34"/><ellipse cx="391.3" cy="340.8" rx="9.8" ry="6.8" fill="#b35527" opacity=".34"/><ellipse cx="201.2" cy="443.1" rx="5.7" ry="8.0" fill="#b35527" opacity=".34"/><ellipse cx="316.0" cy="326.1" rx="7.8" ry="9.9" fill="#b35527" opacity=".34"/><ellipse cx="186.0" cy="382.8" rx="11.7" ry="4.6" fill="#b35527" opacity=".34"/><ellipse cx="281.1" cy="351.0" rx="11.2" ry="3.1" fill="#b35527" opacity=".34"/><ellipse cx="230.6" cy="181.9" rx="6.7" ry="4.0" fill="#b35527" opacity=".34"/><ellipse cx="366.9" cy="337.7" rx="14.3" ry="6.3" fill="#b35527" opacity=".34"/><ellipse cx="249.6" cy="330.4" rx="13.0" ry="5.2" fill="#b35527" opacity=".34"/><ellipse cx="336.6" cy="404.2" rx="4.0" ry="5.4" fill="#b35527" opacity=".34"/><ellipse cx="416.6" cy="292.7" rx="9.8" ry="9.4" fill="#b35527" opacity=".34"/><ellipse cx="348.6" cy="353.9" rx="10.5" ry="8.6" fill="#b35527" opacity=".34"/><ellipse cx="267.2" cy="348.9" rx="14.8" ry="8.4" fill="#b35527" opacity=".34"/><ellipse cx="287.7" cy="156.8" rx="5.2" ry="6.9" fill="#b35527" opacity=".34"/><ellipse cx="397.1" cy="344.2" rx="13.4" ry="8.0" fill="#b35527" opacity=".34"/><ellipse cx="164.3" cy="252.6" rx="13.8" ry="7.6" fill="#b35527" opacity=".34"/><ellipse cx="241.8" cy="181.6" rx="5.9" ry="5.9" fill="#b35527" opacity=".34"/><ellipse cx="163.3" cy="381.8" rx="4.2" ry="6.9" fill="#b35527" opacity=".34"/><ellipse cx="441.2" cy="388.0" rx="6.0" ry="9.7" fill="#b35527" opacity=".34"/><ellipse cx="246.8" cy="346.4" rx="5.6" ry="6.1" fill="#b35527" opacity=".34"/><ellipse cx="447.1" cy="213.4" rx="14.7" ry="6.7" fill="#b35527" opacity=".34"/><ellipse cx="114.8" cy="316.6" rx="5.9" ry="3.6" fill="#b35527" opacity=".34"/><ellipse cx="316.1" cy="482.3" rx="11.0" ry="3.8" fill="#b35527" opacity=".34"/><ellipse cx="336.8" cy="278.1" rx="13.6" ry="6.0" fill="#b35527" opacity=".34"/><ellipse cx="384.1" cy="202.1" rx="12.3" ry="4.5" fill="#b35527" opacity=".34"/><ellipse cx="341.6" cy="278.1" rx="13.4" ry="7.5" fill="#b35527" opacity=".34"/><ellipse cx="342.4" cy="362.5" rx="11.5" ry="7.2" fill="#b35527" opacity=".34"/><ellipse cx="407.7" cy="345.6" rx="4.2" ry="3.3" fill="#b35527" opacity=".34"/><ellipse cx="329.2" cy="203.7" rx="6.6" ry="3.9" fill="#b35527" opacity=".34"/><ellipse cx="267.0" cy="286.6" rx="12.7" ry="9.5" fill="#b35527" opacity=".34"/><ellipse cx="411.1" cy="334.3" rx="6.9" ry="6.0" fill="#b35527" opacity=".34"/><ellipse cx="273.4" cy="351.2" rx="9.4" ry="7.5" fill="#b35527" opacity=".34"/><path d="M330.0 300.0q-10-25 15-27t25 24q-6 24-29 18t-11-15Z" fill="#fff2ce" opacity=".88"/><path d="M243.7 337.8q-10-25 15-27t25 24q-6 24-29 18t-11-15Z" fill="#fff2ce" opacity=".88"/><path d="M290.9 233.3q-10-25 15-27t25 24q-6 24-29 18t-11-15Z" fill="#fff2ce" opacity=".88"/><path d="M332.5 361.9q-10-25 15-27t25 24q-6 24-29 18t-11-15Z" fill="#fff2ce" opacity=".88"/><path d="M197.4 284.5q-10-25 15-27t25 24q-6 24-29 18t-11-15Z" fill="#fff2ce" opacity=".88"/><path d="M369.4 246.3q-10-25 15-27t25 24q-6 24-29 18t-11-15Z" fill="#fff2ce" opacity=".88"/><path d="M256.2 407.2q-10-25 15-27t25 24q-6 24-29 18t-11-15Z" fill="#fff2ce" opacity=".88"/><path d="M228.8 191.7q-10-25 15-27t25 24q-6 24-29 18t-11-15Z" fill="#fff2ce" opacity=".88"/><path d="M409.9 345.7q-10-25 15-27t25 24q-6 24-29 18t-11-15Z" fill="#fff2ce" opacity=".88"/><path d="M151.9 354.9q-10-25 15-27t25 24q-6 24-29 18t-11-15Z" fill="#fff2ce" opacity=".88"/><path d="M350.7 159.6q-10-25 15-27t25 24q-6 24-29 18t-11-15Z" fill="#fff2ce" opacity=".88"/><path d="M334.6 458.4q-10-25 15-27t25 24q-6 24-29 18t-11-15Z" fill="#fff2ce" opacity=".88"/><path d="M330.0 300.0l15-9 11 16-20 7Z" fill="#e5ddb8"/><path d="M272.0 325.7l15-9 11 16-20 7Z" fill="#f5e4a4"/><path d="M304.0 254.2l15-9 11 16-20 7Z" fill="#a9b79c"/><path d="M332.9 342.9l15-9 11 16-20 7Z" fill="#e5ddb8"/><path d="M238.9 289.2l15-9 11 16-20 7Z" fill="#f5e4a4"/><path d="M359.1 262.4l15-9 11 16-20 7Z" fill="#a9b79c"/><path d="M279.7 375.3l15-9 11 16-20 7Z" fill="#e5ddb8"/><path d="M260.4 223.7l15-9 11 16-20 7Z" fill="#f5e4a4"/><path d="M388.3 332.3l15-9 11 16-20 7Z" fill="#a9b79c"/><path d="M205.7 338.9l15-9 11 16-20 7Z" fill="#e5ddb8"/><path d="M346.7 200.4l15-9 11 16-20 7Z" fill="#f5e4a4"/><path d="M335.3 412.6l15-9 11 16-20 7Z" fill="#a9b79c"/><path d="M191.0 236.8l15-9 11 16-20 7Z" fill="#e5ddb8"/><path d="M430.9 271.3l15-9 11 16-20 7Z" fill="#f5e4a4"/><path d="M218.3 416.1l15-9 11 16-20 7Z" fill="#a9b79c"/><path d="M280.8 151.2l15-9 11 16-20 7Z" fill="#e5ddb8"/><path d="M420.8 401.9l15-9 11 16-20 7Z" fill="#f5e4a4"/><path d="M134.1 306.8l15-9 11 16-20 7Z" fill="#a9b79c"/><path d="M423.4 177.3l15-9 11 16-20 7Z" fill="#e5ddb8"/><path d="M291.5 481.8l15-9 11 16-20 7Z" fill="#f5e4a4"/><g transform="translate(350.0 300.0) rotate(0)"><path d="M-22 0Q0-35 25 0Q0 31-22 0Z" fill="#37552d"/><path d="M-19 0L20 0" stroke="#8a9852" stroke-width="2"/></g><g transform="translate(250.6 345.3) rotate(69)"><path d="M-22 0Q0-35 25 0Q0 31-22 0Z" fill="#37552d"/><path d="M-19 0L20 0" stroke="#8a9852" stroke-width="2"/></g><g transform="translate(307.3 216.3) rotate(138)"><path d="M-22 0Q0-35 25 0Q0 31-22 0Z" fill="#37552d"/><path d="M-19 0L20 0" stroke="#8a9852" stroke-width="2"/></g><g transform="translate(361.4 380.2) rotate(207)"><path d="M-22 0Q0-35 25 0Q0 31-22 0Z" fill="#37552d"/><path d="M-19 0L20 0" stroke="#8a9852" stroke-width="2"/></g><g transform="translate(183.8 279.4) rotate(276)"><path d="M-22 0Q0-35 25 0Q0 31-22 0Z" fill="#37552d"/><path d="M-19 0L20 0" stroke="#8a9852" stroke-width="2"/></g><g transform="translate(413.9 227.6) rotate(345)"><path d="M-22 0Q0-35 25 0Q0 31-22 0Z" fill="#37552d"/><path d="M-19 0L20 0" stroke="#8a9852" stroke-width="2"/></g><g transform="translate(260.5 446.8) rotate(414)"><path d="M-22 0Q0-35 25 0Q0 31-22 0Z" fill="#37552d"/><path d="M-19 0L20 0" stroke="#8a9852" stroke-width="2"/></g><g transform="translate(222.1 150.0) rotate(483)"><path d="M-22 0Q0-35 25 0Q0 31-22 0Z" fill="#37552d"/><path d="M-19 0L20 0" stroke="#8a9852" stroke-width="2"/></g></g><circle cx="163.6" cy="226.2" r="1" fill="#f1ebc9" opacity=".7"/><circle cx="97.5" cy="217.8" r="1" fill="#f1ebc9" opacity=".7"/><circle cx="156.2" cy="351.0" r="1" fill="#f1ebc9" opacity=".7"/><circle cx="332.8" cy="157.2" r="1" fill="#f1ebc9" opacity=".7"/><circle cx="119.3" cy="356.9" r="1" fill="#f1ebc9" opacity=".7"/><circle cx="200.6" cy="433.5" r="1" fill="#f1ebc9" opacity=".7"/><circle cx="322.4" cy="404.1" r="1" fill="#f1ebc9" opacity=".7"/><circle cx="109.5" cy="339.1" r="1" fill="#f1ebc9" opacity=".7"/><circle cx="478.9" cy="185.0" r="1" fill="#f1ebc9" opacity=".7"/><circle cx="323.9" cy="493.8" r="1" fill="#f1ebc9" opacity=".7"/><circle cx="480.4" cy="315.9" r="1" fill="#f1ebc9" opacity=".7"/><circle cx="147.5" cy="307.3" r="1" fill="#f1ebc9" opacity=".7"/><circle cx="329.4" cy="458.6" r="1" fill="#f1ebc9" opacity=".7"/><circle cx="140.4" cy="138.1" r="1" fill="#f1ebc9" opacity=".7"/><circle cx="202.3" cy="178.9" r="1" fill="#f1ebc9" opacity=".7"/><circle cx="326.0" cy="363.1" r="1" fill="#f1ebc9" opacity=".7"/><circle cx="444.7" cy="315.5" r="1" fill="#f1ebc9" opacity=".7"/><circle cx="134.7" cy="226.1" r="1" fill="#f1ebc9" opacity=".7"/><circle cx="393.1" cy="441.0" r="1" fill="#f1ebc9" opacity=".7"/><circle cx="298.6" cy="377.2" r="1" fill="#f1ebc9" opacity=".7"/><circle cx="297.6" cy="112.1" r="1" fill="#f1ebc9" opacity=".7"/><circle cx="235.0" cy="400.3" r="1" fill="#f1ebc9" opacity=".7"/><circle cx="450.1" cy="181.9" r="1" fill="#f1ebc9" opacity=".7"/><circle cx="136.0" cy="122.3" r="1" fill="#f1ebc9" opacity=".7"/><circle cx="340.0" cy="484.1" r="1" fill="#f1ebc9" opacity=".7"/><circle cx="175.9" cy="106.2" r="1" fill="#f1ebc9" opacity=".7"/><circle cx="206.0" cy="340.1" r="1" fill="#f1ebc9" opacity=".7"/><circle cx="202.9" cy="171.7" r="1" fill="#f1ebc9" opacity=".7"/><circle cx="490.5" cy="213.7" r="1" fill="#f1ebc9" opacity=".7"/><circle cx="505.7" cy="319.3" r="1" fill="#f1ebc9" opacity=".7"/></svg>